<svg width="24" height="24" viewBox="0 0 24 24" fill="none" xmlns="http://www.w3.org/2000/svg">
<path d="M5.87402 7L7.40902 14.246C7.62002 15.244 8.54902 15.923 9.56502 15.822L16.381 15.14C17.221 15.056 17.917 14.454 18.122 13.635L19.47 8.243C19.628 7.611 19.151 7 18.5 7H10.187"  stroke-width="2" stroke-linecap="round" stroke-linejoin="round"/>
<path d="M5.874 7L5.224 4H3.5"  stroke-width="2" stroke-linecap="round" stroke-linejoin="round"/>
<path d="M17.109 19.267C16.907 19.267 16.743 19.431 16.745 19.633C16.745 19.835 16.909 19.999 17.111 19.999C17.313 19.999 17.477 19.835 17.477 19.633C17.476 19.431 17.312 19.267 17.109 19.267"  stroke-width="2" stroke-linecap="round" stroke-linejoin="round"/>
<path d="M8.697 19.267C8.495 19.267 8.331 19.431 8.333 19.633C8.331 19.836 8.496 20 8.698 20C8.9 20 9.064 19.836 9.064 19.634C9.064 19.431 8.9 19.267 8.697 19.267"  stroke-width="2" stroke-linecap="round" stroke-linejoin="round"/>
</svg>
