<svg width="20" height="20" viewBox="0 0 20 20" fill="none" xmlns="http://www.w3.org/2000/svg">
<path d="M18.3337 7.5L16.1504 8.33333" stroke="#7A7680" stroke-width="1.5" stroke-linecap="round" stroke-linejoin="round"/>
<path d="M3.85866 8.33333L1.66699 7.5" stroke="#7A7680" stroke-width="1.5" stroke-linecap="round" stroke-linejoin="round"/>
<path d="M15.2083 11.6667H13.125" stroke="#7A7680" stroke-width="1.5" stroke-linecap="round" stroke-linejoin="round"/>
<path d="M6.87533 11.6667H4.79199" stroke="#7A7680" stroke-width="1.5" stroke-linecap="round" stroke-linejoin="round"/>
<path d="M16.1498 8.33331L15.4506 4.98998C15.2481 4.02498 14.3973 3.33331 13.4106 3.33331H6.67728C5.70978 3.33331 4.86895 3.99998 4.64895 4.94248L3.85645 8.33331" stroke="#7A7680" stroke-width="1.5" stroke-linecap="round" stroke-linejoin="round"/>
<path fill-rule="evenodd" clip-rule="evenodd" d="M3.75033 16.6666H4.58366C5.77818 16.6666 5.77818 15.4166 5.77818 14.5833H14.167C14.167 15.4785 14.167 16.6666 15.417 16.6666H16.2503C17.5003 16.6666 17.5003 15.4166 17.5003 14.5833H18.3337V13.2291V10.8333C18.3337 9.45248 17.2145 8.33331 15.8337 8.33331H4.16699C2.78616 8.33331 1.66699 9.45248 1.66699 10.8333V13.2291V14.5833H2.50033C2.50033 15.4166 2.50033 16.6666 3.75033 16.6666Z" stroke="#7A7680" stroke-width="1.5" stroke-linecap="round" stroke-linejoin="round"/>
</svg>
