<svg width="32" height="32" viewBox="0 0 32 32" fill="none" xmlns="http://www.w3.org/2000/svg">
<path fill-rule="evenodd" clip-rule="evenodd" d="M29.2947 15.9614C29.2947 8.61875 23.3427 2.66675 16 2.66675V7.98408C20.4053 7.98408 23.9773 11.5547 23.9773 15.9614H29.2947Z" fill="#5946D7" fill-opacity="0.1" stroke="#5946D7" stroke-width="2" stroke-linecap="round" stroke-linejoin="round"/>
<path d="M26.5613 15.9612V16.6999C26.5613 22.9412 21.5026 27.9999 15.2613 27.9999C9.01997 27.9999 3.9613 22.9412 3.9613 16.6999C3.9613 10.4586 9.01997 5.3999 15.2613 5.3999H16" stroke="#5946D7" stroke-width="2" stroke-linecap="round" stroke-linejoin="round"/>
<path fill-rule="evenodd" clip-rule="evenodd" d="M18.2377 13.7236C19.8816 15.3675 19.8816 18.0327 18.2377 19.6765C16.5939 21.3204 13.9287 21.3204 12.2848 19.6765C10.641 18.0327 10.641 15.3675 12.2848 13.7236C13.9287 12.0798 16.5939 12.0798 18.2377 13.7236" fill="#5946D7" fill-opacity="0.1"/>
<path d="M18.2377 13.7236C19.8816 15.3675 19.8816 18.0327 18.2377 19.6765C16.5939 21.3204 13.9287 21.3204 12.2848 19.6765C10.641 18.0327 10.641 15.3675 12.2848 13.7236C13.9287 12.0798 16.5939 12.0798 18.2377 13.7236" stroke="#5946D7" stroke-width="2" stroke-linecap="round" stroke-linejoin="round"/>
</svg>
