<svg width="32" height="32" viewBox="0 0 32 32" fill="none" xmlns="http://www.w3.org/2000/svg">
<path d="M2.5 24.5L3 10V9.5H9L11.5 7L16 6.5V26.5H4L2.5 24.5Z" fill="#5946D7" fill-opacity="0.1"/>
<path d="M22.6666 9.33325V6.66659C22.6666 5.93059 23.264 5.33325 24 5.33325H26.6666C27.4026 5.33325 28 5.93059 28 6.66659V9.33325" stroke="#5946D7" stroke-width="2" stroke-linecap="round" stroke-linejoin="round"/>
<path d="M22.6667 15.3333V19.3333" stroke="#5946D7" stroke-width="2" stroke-linecap="round" stroke-linejoin="round"/>
<path d="M24.6666 17.3333H20.6666" stroke="#5946D7" stroke-width="2" stroke-linecap="round" stroke-linejoin="round"/>
<path d="M11.3333 17.3333H7.33325" stroke="#5946D7" stroke-width="2" stroke-linecap="round" stroke-linejoin="round"/>
<path d="M4 9.33325V6.66659C4 5.93059 4.59733 5.33325 5.33333 5.33325H8C8.736 5.33325 9.33333 5.93059 9.33333 6.66659V9.33325" stroke="#5946D7" stroke-width="2" stroke-linecap="round" stroke-linejoin="round"/>
<path fill-rule="evenodd" clip-rule="evenodd" d="M22.6666 9.33317H28C28.736 9.33317 29.3333 9.9305 29.3333 10.6665V23.9998C29.3333 25.4732 28.14 26.6665 26.6666 26.6665H5.33329C3.85996 26.6665 2.66663 25.4732 2.66663 23.9998V10.6665C2.66663 9.9305 3.26396 9.33317 3.99996 9.33317H9.33329L11.6093 7.05717C11.86 6.8065 12.1986 6.6665 12.552 6.6665H19.448C19.8013 6.6665 20.1413 6.8065 20.3906 7.05717L22.6666 9.33317V9.33317Z" stroke="#5946D7" stroke-width="2" stroke-linecap="round" stroke-linejoin="round"/>
</svg>
