<svg width="32" height="32" viewBox="0 0 32 32" fill="none" xmlns="http://www.w3.org/2000/svg">
<path d="M5.15734 16.472L7.04268 14.5867C8.08401 13.5453 9.77201 13.5453 10.8133 14.5867L17.4133 21.1867C18.4547 22.228 18.4547 23.916 17.4133 24.9573L15.528 26.8427C14.4867 27.884 12.7987 27.884 11.7573 26.8427L5.15734 20.2427C4.11601 19.2013 4.11601 17.5133 5.15734 16.472Z" fill="#5946D7" fill-opacity="0.1" stroke="#5946D7" stroke-width="2" stroke-linecap="round" stroke-linejoin="round"/>
<path d="M6.09333 21.1868L3.26666 24.0134" stroke="#5946D7" stroke-width="2" stroke-linecap="round" stroke-linejoin="round"/>
<path d="M8.34668 29.0801L11.1733 26.2534" stroke="#5946D7" stroke-width="2" stroke-linecap="round" stroke-linejoin="round"/>
<path fill-rule="evenodd" clip-rule="evenodd" d="M22.128 5.15744L20.2427 3.2721C19.7213 2.75077 18.8773 2.75077 18.3573 3.2721L16.8627 4.76677C16.612 5.01744 16.472 5.3561 16.472 5.70944V8.9281L14.5867 10.8134C14.0653 11.3348 14.0653 12.1788 14.5867 12.6988L19.3013 17.4134C19.8227 17.9348 20.6667 17.9348 21.1867 17.4134L23.072 15.5281H26.2907C26.644 15.5281 26.984 15.3881 27.2333 15.1374L28.728 13.6428C29.2493 13.1214 29.2493 12.2774 28.728 11.7574L26.8427 9.8721" fill="#5946D7" fill-opacity="0.1"/>
<path d="M22.128 5.15744L20.2427 3.2721C19.7213 2.75077 18.8773 2.75077 18.3573 3.2721L16.8627 4.76677C16.612 5.01744 16.472 5.3561 16.472 5.70944V8.9281L14.5867 10.8134C14.0653 11.3348 14.0653 12.1788 14.5867 12.6988L19.3013 17.4134C19.8227 17.9348 20.6667 17.9348 21.1867 17.4134L23.072 15.5281H26.2907C26.644 15.5281 26.984 15.3881 27.2333 15.1374L28.728 13.6428C29.2493 13.1214 29.2493 12.2774 28.728 11.7574L26.8427 9.8721" stroke="#5946D7" stroke-width="2" stroke-linecap="round" stroke-linejoin="round"/>
<path d="M20.3333 13.0001L19 11.6667" stroke="#5946D7" stroke-width="2" stroke-linecap="round" stroke-linejoin="round"/>
<path d="M21.3334 29.3333V28" stroke="#5946D7" stroke-width="2" stroke-linecap="round" stroke-linejoin="round"/>
<path d="M29.3333 21.3334H28" stroke="#5946D7" stroke-width="2" stroke-linecap="round" stroke-linejoin="round"/>
<path d="M28 28.0001L26.6667 26.6667" stroke="#5946D7" stroke-width="2" stroke-linecap="round" stroke-linejoin="round"/>
<path d="M10.6667 2.66675V4.00008" stroke="#5946D7" stroke-width="2" stroke-linecap="round" stroke-linejoin="round"/>
<path d="M2.66669 10.6667H4.00002" stroke="#5946D7" stroke-width="2" stroke-linecap="round" stroke-linejoin="round"/>
<path d="M4 4L5.33333 5.33333" stroke="#5946D7" stroke-width="2" stroke-linecap="round" stroke-linejoin="round"/>
<path d="M10 19.3335L12.6667 22.0002" stroke="#5946D7" stroke-width="2" stroke-linecap="round" stroke-linejoin="round"/>
<path d="M28.728 7.98677L25.9 10.8148C25.3786 11.3361 24.5346 11.3361 24.0146 10.8148L21.1853 7.98677C20.664 7.46544 20.664 6.62144 21.1853 6.10144L24.0133 3.27344" stroke="#5946D7" stroke-width="2" stroke-linecap="round" stroke-linejoin="round"/>
</svg>
