<svg width="32" height="32" viewBox="0 0 32 32" fill="none" xmlns="http://www.w3.org/2000/svg">
<path fill-rule="evenodd" clip-rule="evenodd" d="M25.4281 6.57199C30.6351 11.779 30.6351 20.2212 25.4281 25.4281C20.2211 30.6351 11.7789 30.6351 6.57199 25.4281C1.365 20.2211 1.365 11.7789 6.57199 6.57199C11.779 1.365 20.2212 1.365 25.4281 6.57199" fill="#5946D7" fill-opacity="0.1"/>
<path d="M25.4281 6.57199C30.6351 11.779 30.6351 20.2212 25.4281 25.4281C20.2211 30.6351 11.7789 30.6351 6.57199 25.4281C1.365 20.2211 1.365 11.7789 6.57199 6.57199C11.779 1.365 20.2212 1.365 25.4281 6.57199" stroke="#5946D7" stroke-width="2" stroke-linecap="round" stroke-linejoin="round"/>
<path fill-rule="evenodd" clip-rule="evenodd" d="M22.5995 9.40042C26.2444 13.0453 26.2444 18.9548 22.5995 22.5997C18.9546 26.2446 13.0451 26.2446 9.40017 22.5997C5.75528 18.9548 5.75528 13.0453 9.40017 9.40042C13.0451 5.75552 18.9546 5.75552 22.5995 9.40042" fill="white"/>
<path d="M22.5995 9.40042C26.2444 13.0453 26.2444 18.9548 22.5995 22.5997C18.9546 26.2446 13.0451 26.2446 9.40017 22.5997C5.75528 18.9548 5.75528 13.0453 9.40017 9.40042C13.0451 5.75552 18.9546 5.75552 22.5995 9.40042" stroke="#5946D7" stroke-width="2" stroke-linecap="round" stroke-linejoin="round"/>
<path d="M16 13.3334V6.66675" stroke="#5946D7" stroke-width="2" stroke-linecap="round" stroke-linejoin="round"/>
<path d="M16 25.3334V18.6667" stroke="#5946D7" stroke-width="2" stroke-linecap="round" stroke-linejoin="round"/>
<path d="M17.88 14.1201L22.6 9.40015" stroke="#5946D7" stroke-width="2" stroke-linecap="round" stroke-linejoin="round"/>
<path d="M9.39996 22.6001L14.12 17.8801" stroke="#5946D7" stroke-width="2" stroke-linecap="round" stroke-linejoin="round"/>
<path d="M18.6666 16.0002H25.3333" stroke="#5946D7" stroke-width="2" stroke-linecap="round" stroke-linejoin="round"/>
<path d="M6.66663 16.0002H13.3333" stroke="#5946D7" stroke-width="2" stroke-linecap="round" stroke-linejoin="round"/>
<path d="M17.88 17.8801L22.6 22.6001" stroke="#5946D7" stroke-width="2" stroke-linecap="round" stroke-linejoin="round"/>
<path d="M9.39996 9.40015L14.12 14.1201" stroke="#5946D7" stroke-width="2" stroke-linecap="round" stroke-linejoin="round"/>
<path fill-rule="evenodd" clip-rule="evenodd" d="M17.8856 14.1145C18.927 15.1559 18.927 16.8444 17.8856 17.8858C16.8442 18.9272 15.1558 18.9272 14.1144 17.8858C13.073 16.8444 13.073 15.1559 14.1144 14.1145C15.1558 13.0731 16.8442 13.0731 17.8856 14.1145" fill="white"/>
<path d="M17.8856 14.1145C18.927 15.1559 18.927 16.8444 17.8856 17.8858C16.8442 18.9272 15.1558 18.9272 14.1144 17.8858C13.073 16.8444 13.073 15.1559 14.1144 14.1145C15.1558 13.0731 16.8442 13.0731 17.8856 14.1145" stroke="#5946D7" stroke-width="2" stroke-linecap="round" stroke-linejoin="round"/>
</svg>
