<svg width="34" height="34" viewBox="0 0 34 34" fill="none" xmlns="http://www.w3.org/2000/svg">
<path d="M3 27V10V9L15 2.5L13 17H8.5V27H3Z" fill="#5946D7" fill-opacity="0.1"/>
<path d="M12.197 9.91371H17.5514" stroke="#5946D7" stroke-width="2" stroke-linecap="round" stroke-linejoin="round"/>
<path d="M12.7484 17H8.49658V26.9208" stroke="#5946D7" stroke-width="2" stroke-linecap="round" stroke-linejoin="round"/>
<path d="M8.49642 26.9207H2.82739V10.7101C2.82739 9.73779 3.35475 8.84196 4.20497 8.37022L13.5745 3.16464C14.3831 2.7153 15.3665 2.7153 16.1751 3.16464L25.5446 8.37022C26.3941 8.84256 26.9208 9.73817 26.9208 10.7101V12.7481" stroke="#5946D7" stroke-width="2" stroke-linecap="round" stroke-linejoin="round"/>
<path fill-rule="evenodd" clip-rule="evenodd" d="M31.1726 25.22C31.1726 23.6546 29.9036 22.3855 28.3381 22.3855H17C15.4346 22.3855 14.1655 23.6546 14.1655 25.22" fill="#5946D7" fill-opacity="0.1"/>
<path d="M31.1726 25.22C31.1726 23.6546 29.9036 22.3855 28.3381 22.3855H17C15.4346 22.3855 14.1655 23.6546 14.1655 25.22" stroke="#5946D7" stroke-width="2" stroke-linecap="round" stroke-linejoin="round"/>
<path fill-rule="evenodd" clip-rule="evenodd" d="M14.1655 25.2202V29.7554C14.1655 30.5382 14.8001 31.1727 15.5828 31.1727H16.9859C17.7686 31.1727 18.4031 30.5382 18.4031 29.7554V28.8186H26.935V29.7554C26.935 30.5382 27.5695 31.1727 28.3523 31.1727H29.7554C30.5381 31.1727 31.1726 30.5382 31.1726 29.7554V25.2202" fill="#5946D7" fill-opacity="0.1"/>
<path d="M14.1655 25.2202V29.7554C14.1655 30.5382 14.8001 31.1727 15.5828 31.1727H16.9859C17.7686 31.1727 18.4031 30.5382 18.4031 29.7554V28.8186H26.935V29.7554C26.935 30.5382 27.5695 31.1727 28.3523 31.1727H29.7554C30.5381 31.1727 31.1726 30.5382 31.1726 29.7554V25.2202" stroke="#5946D7" stroke-width="2" stroke-linecap="round" stroke-linejoin="round"/>
<path d="M19.4618 25.6454H17.343" stroke="#5946D7" stroke-width="2" stroke-linecap="round" stroke-linejoin="round"/>
<path d="M27.995 25.6454H25.8762" stroke="#5946D7" stroke-width="2" stroke-linecap="round" stroke-linejoin="round"/>
<path d="M29.0537 22.2963L31.1725 21.2376" stroke="#5946D7" stroke-width="2" stroke-linecap="round" stroke-linejoin="round"/>
<path d="M16.2914 22.2963L14.1655 21.2376" stroke="#5946D7" stroke-width="2" stroke-linecap="round" stroke-linejoin="round"/>
<path d="M19.2223 17C18.2386 17.0025 17.3851 17.6796 17.1588 18.6369L16.2603 22.4777L17.1588 18.6369C17.3851 17.6796 18.2386 17.0025 19.2223 17H26.1159C27.0996 17.0025 27.9531 17.6796 28.1794 18.6369L29.0779 22.4777" stroke="#5946D7" stroke-width="2" stroke-linecap="round" stroke-linejoin="round"/>
</svg>
