<svg width="32" height="32" viewBox="0 0 32 32" fill="none" xmlns="http://www.w3.org/2000/svg">
<path fill-rule="evenodd" clip-rule="evenodd" d="M18.7318 21.4357V21.4357C17.8856 21.5768 17.0201 21.3385 16.3654 20.784C15.7107 20.2295 15.3331 19.4151 15.3331 18.5571V13.443C15.3331 12.585 15.7107 11.7706 16.3654 11.2161C17.0201 10.6616 17.8856 10.4233 18.7318 10.5645V10.5645C21.389 11.0072 23.3365 13.3062 23.3364 16.0001V16.0001C23.3365 18.6939 21.389 20.9929 18.7318 21.4357V21.4357Z" fill="#5946D7" fill-opacity="0.1" stroke="#5946D7" stroke-width="2" stroke-linecap="round" stroke-linejoin="round"/>
<path d="M9.33057 13.3322L11.9983 12.6653" stroke="#5946D7" stroke-width="2" stroke-linecap="round" stroke-linejoin="round"/>
<path d="M9.33057 16.667L11.9983 16.0001" stroke="#5946D7" stroke-width="2" stroke-linecap="round" stroke-linejoin="round"/>
<path fill-rule="evenodd" clip-rule="evenodd" d="M16 28.0051V28.0051C9.36982 28.0051 3.995 22.6303 3.995 16.0001V16.0001C3.995 9.36994 9.36982 3.99512 16 3.99512V3.99512C22.6302 3.99512 28.005 9.36994 28.005 16.0001V16.0001C28.005 22.6303 22.6302 28.0051 16 28.0051V28.0051Z" stroke="#5946D7" stroke-width="2" stroke-linecap="round" stroke-linejoin="round"/>
<path d="M9.33057 20.0018L11.9983 19.3348" stroke="#5946D7" stroke-width="2" stroke-linecap="round" stroke-linejoin="round"/>
</svg>
