<svg width="20" height="20" viewBox="0 0 20 20" fill="none" xmlns="http://www.w3.org/2000/svg">
<path fill-rule="evenodd" clip-rule="evenodd" d="M1.97951 4.7246C2.22133 3.32069 3.33723 2.28869 4.7456 2.0744C6.09505 1.86907 7.94628 1.66663 9.99996 1.66663C12.0536 1.66663 13.9049 1.86907 15.2543 2.0744C16.6627 2.28869 17.7786 3.32069 18.0204 4.7246C18.189 5.70306 18.3333 6.946 18.3333 8.33329C18.3333 9.72058 18.189 10.9635 18.0204 11.942C17.7786 13.3459 16.6627 14.3779 15.2543 14.5922C14.0198 14.78 12.3653 14.9655 10.52 14.9957L5.4239 18.007C4.86839 18.3353 4.16663 17.9348 4.16663 17.2896V14.4533C3.03876 14.0782 2.18709 13.1471 1.97951 11.942C1.81097 10.9635 1.66663 9.72058 1.66663 8.33329C1.66663 6.946 1.81097 5.70306 1.97951 4.7246ZM4.99996 6.66663C4.99996 6.20639 5.37306 5.83329 5.83329 5.83329H14.1666C14.6269 5.83329 15 6.20639 15 6.66663C15 7.12686 14.6269 7.49996 14.1666 7.49996H5.83329C5.37306 7.49996 4.99996 7.12686 4.99996 6.66663ZM4.99996 9.99996C4.99996 9.53972 5.37306 9.16663 5.83329 9.16663H9.16663C9.62686 9.16663 9.99996 9.53972 9.99996 9.99996C9.99996 10.4602 9.62686 10.8333 9.16663 10.8333H5.83329C5.37306 10.8333 4.99996 10.4602 4.99996 9.99996Z" fill="white"/>
</svg>
