<svg width="18" height="18" viewBox="0 0 18 18" fill="none" xmlns="http://www.w3.org/2000/svg">
<path fill-rule="evenodd" clip-rule="evenodd" d="M13.2442 4.75555C15.5885 7.09986 15.5885 10.9001 13.2442 13.2444C10.8999 15.5887 7.09961 15.5887 4.7553 13.2444C2.41099 10.9001 2.41099 7.09986 4.7553 4.75555C7.09961 2.41124 10.8999 2.41124 13.2442 4.75555" fill="#38A865"/>
<path d="M13.2442 4.75555C15.5885 7.09986 15.5885 10.9001 13.2442 13.2444C10.8999 15.5887 7.09961 15.5887 4.7553 13.2444C2.41099 10.9001 2.41099 7.09986 4.7553 4.75555C7.09961 2.41124 10.8999 2.41124 13.2442 4.75555" stroke="#38A865" stroke-width="2" stroke-linecap="round" stroke-linejoin="round"/>
<path d="M12.111 7.66608L9.44384 10.3339L7.66577 8.55511L5.8877 10.3339" stroke="white" stroke-width="1.5" stroke-linecap="round" stroke-linejoin="round"/>
</svg>
