<svg width="16" height="18" viewBox="0 0 16 18"  xmlns="http://www.w3.org/2000/svg">
<path d="M3.74857 4.41662C3.74857 4.00241 3.41278 3.66662 2.99857 3.66662C2.58435 3.66662 2.24857 4.00241 2.24857 4.41662H3.74857ZM13.7527 3.99995C13.7527 3.58574 13.4169 3.24995 13.0027 3.24995C12.5885 3.24995 12.2527 3.58574 12.2527 3.99995H13.7527ZM10.418 7.33259C10.418 6.91838 10.0822 6.58259 9.66801 6.58259C9.2538 6.58259 8.91801 6.91838 8.91801 7.33259H10.418ZM8.91801 13.1684C8.91801 13.5826 9.2538 13.9184 9.66801 13.9184C10.0822 13.9184 10.418 13.5826 10.418 13.1684H8.91801ZM7.08329 7.33259C7.08329 6.91838 6.7475 6.58259 6.33329 6.58259C5.91908 6.58259 5.58329 6.91838 5.58329 7.33259H7.08329ZM5.58329 13.1684C5.58329 13.5826 5.91908 13.9184 6.33329 13.9184C6.7475 13.9184 7.08329 13.5826 7.08329 13.1684H5.58329ZM1.74805 3.24787C1.33383 3.24787 0.998047 3.58366 0.998047 3.99787C0.998047 4.41208 1.33383 4.74787 1.74805 4.74787V3.24787ZM14.2533 4.74787C14.6675 4.74787 15.0033 4.41208 15.0033 3.99787C15.0033 3.58366 14.6675 3.24787 14.2533 3.24787V4.74787ZM3.95442 3.7607C3.82343 4.15366 4.0358 4.5784 4.42876 4.70938C4.82172 4.84037 5.24646 4.628 5.37744 4.23504L3.95442 3.7607ZM5.11945 2.6373L5.83096 2.87447L5.83102 2.8743L5.11945 2.6373ZM6.70178 1.49683L6.7016 2.24683H6.70178V1.49683ZM9.29953 1.49683L9.29953 2.24683L9.30046 2.24683L9.29953 1.49683ZM10.8835 2.6373L11.5953 2.40092L11.5951 2.4003L10.8835 2.6373ZM10.6236 4.23425C10.7542 4.62736 11.1787 4.84019 11.5718 4.70964C11.9649 4.57909 12.1777 4.15459 12.0471 3.76148L10.6236 4.23425ZM2.24857 4.41662V14.8357H3.74857V4.41662H2.24857ZM2.24857 14.8357C2.24857 16.1708 3.33086 17.2531 4.66593 17.2531V15.7531C4.15928 15.7531 3.74857 15.3424 3.74857 14.8357H2.24857ZM4.66593 17.2531H11.3354V15.7531H4.66593V17.2531ZM11.3354 17.2531C12.6704 17.2531 13.7527 16.1708 13.7527 14.8357H12.2527C12.2527 15.3424 11.842 15.7531 11.3354 15.7531V17.2531ZM13.7527 14.8357V3.99995H12.2527V14.8357H13.7527ZM8.91801 7.33259V13.1684H10.418V7.33259H8.91801ZM5.58329 7.33259V13.1684H7.08329V7.33259H5.58329ZM1.74805 4.74787H14.2533V3.24787H1.74805V4.74787ZM5.37744 4.23504L5.83096 2.87447L4.40794 2.40013L3.95442 3.7607L5.37744 4.23504ZM5.83102 2.8743C5.95585 2.49952 6.30657 2.24673 6.7016 2.24683L6.70196 0.746827C5.66102 0.746579 4.73682 1.41271 4.40788 2.4003L5.83102 2.8743ZM6.70178 2.24683H9.29953V0.746827H6.70178V2.24683ZM9.30046 2.24683C9.69582 2.24634 10.047 2.4992 10.1719 2.8743L11.5951 2.4003C11.2659 1.41186 10.3404 0.745537 9.2986 0.746828L9.30046 2.24683ZM10.1717 2.87369L10.6236 4.23425L12.0471 3.76148L11.5953 2.40092L10.1717 2.87369Z"/>
</svg>
