<svg width="14" height="12" viewBox="0 0 14 12" fill="none" xmlns="http://www.w3.org/2000/svg">
<path d="M1.61462 1.31387L4.23579 3.09996L6.4567 0.488639C6.51998 0.410845 6.6 0.348332 6.69079 0.305752C6.78159 0.263173 6.88082 0.241626 6.9811 0.242715C7.08137 0.243804 7.18011 0.267502 7.26996 0.312044C7.35981 0.356585 7.43845 0.420823 7.50003 0.499972L9.69579 3.0993L12.2442 1.30853C12.347 1.2198 12.4745 1.1646 12.6096 1.15032C12.7447 1.13603 12.8809 1.16334 13 1.2286C13.1191 1.29385 13.2155 1.39393 13.2762 1.51544C13.3368 1.63695 13.359 1.7741 13.3395 1.90853L12.4098 9.03H1.61446L0.514624 1.91254C0.494455 1.77736 0.51632 1.63925 0.577257 1.51692C0.638194 1.39458 0.735259 1.29393 0.855304 1.2286C0.975349 1.16326 1.11257 1.1364 1.24839 1.15166C1.38421 1.16691 1.51206 1.22354 1.61462 1.31387ZM1.66646 10.2H12.3331V11.1552C12.3331 11.332 12.2629 11.5016 12.1379 11.6266C12.0128 11.7516 11.8433 11.8219 11.6665 11.8219H2.33313C2.15631 11.8219 1.98675 11.7516 1.86172 11.6266C1.7367 11.5016 1.66646 11.332 1.66646 11.1552L1.66646 10.2Z" fill="#FB6019"/>
</svg>
