<svg width="24" height="24" viewBox="0 0 24 24" fill="none" xmlns="http://www.w3.org/2000/svg">
<path opacity="0.4" d="M2 6.447C2 3.996 4.03024 2 6.52453 2H11.4856C13.9748 2 16 3.99 16 6.437V17.553C16 20.005 13.9698 22 11.4744 22H6.51537C4.02515 22 2 20.01 2 17.563V16.623V6.447Z" fill="#F11A22"/>
<path d="M21.779 11.4541L18.9332 8.54506C18.6391 8.24506 18.1657 8.24506 17.8726 8.54706C17.5804 8.84906 17.5814 9.33606 17.8745 9.63606L19.4338 11.2291H17.9388H9.5485C9.13459 11.2291 8.79858 11.5741 8.79858 11.9991C8.79858 12.4251 9.13459 12.7691 9.5485 12.7691H19.4338L17.8745 14.3621C17.5814 14.6621 17.5804 15.1491 17.8726 15.4511C18.0196 15.6021 18.2115 15.6781 18.4043 15.6781C18.5952 15.6781 18.7871 15.6021 18.9332 15.4531L21.779 12.5451C21.9202 12.4001 22 12.2041 22 11.9991C22 11.7951 21.9202 11.5991 21.779 11.4541Z" fill="#F11A22"/>
</svg>
