<svg width="20" height="20" viewBox="0 0 20 20" fill="none" xmlns="http://www.w3.org/2000/svg">
<path fill-rule="evenodd" clip-rule="evenodd" d="M10 17.5V17.5C5.8575 17.5 2.5 14.1425 2.5 10V10C2.5 5.8575 5.8575 2.5 10 2.5V2.5C14.1425 2.5 17.5 5.8575 17.5 10V10C17.5 14.1425 14.1425 17.5 10 17.5Z"/>
<path d="M10.0003 14.1667V10H9.16699"/>
<path d="M9.79084 6.66671C9.67584 6.66671 9.5825 6.76004 9.58334 6.87504C9.58334 6.99004 9.67667 7.08337 9.79167 7.08337C9.90667 7.08337 10 6.99004 10 6.87504C10 6.76004 9.90667 6.66671 9.79084 6.66671"/>
</svg>
