<svg width="27" height="16" viewBox="0 0 27 16" fill="none" xmlns="http://www.w3.org/2000/svg">
<path d="M18.791 15.8159H10.8295V0.95874H18.791V15.8159Z" fill="#B1B4B9"/>
<path d="M10.4332 8C10.4332 5.44828 11.6222 3.17528 13.4738 1.71047C12.1197 0.639327 10.4109 0 8.55381 0C4.1572 0 0.593262 3.58166 0.593262 8C0.593262 12.4184 4.1572 16 8.55381 16C10.4109 16 12.1197 15.3607 13.4738 14.2895C11.6222 12.8247 10.4332 10.5517 10.4332 8Z" fill="#F5F3F0"/>
<path d="M26.3472 8C26.3472 12.4184 22.7832 16 18.3866 16C16.5295 16 14.8207 15.3607 13.4662 14.2895C15.3182 12.8247 16.5072 10.5517 16.5072 8C16.5072 5.44828 15.3182 3.17528 13.4662 1.71047C14.8207 0.639327 16.5295 0 18.3866 0C22.7832 0 26.3472 3.58166 26.3472 8Z" fill="#7A7A7E"/>
</svg>
