<svg width="54" height="16" viewBox="0 0 54 16" fill="none" xmlns="http://www.w3.org/2000/svg">
<path fill-rule="evenodd" clip-rule="evenodd" d="M5.2338 0.828053C5.71011 0.825192 7.12572 0.69717 7.72534 2.72922C8.12925 4.09803 8.77266 6.3402 9.65558 9.45577H10.0151C10.9619 6.17112 11.6124 3.92895 11.9664 2.72922C12.5723 0.676003 14.0869 0.828094 14.6928 0.828094L19.3672 0.828099V15.4287H14.603V6.82432H14.2835L11.6276 15.4287H8.04308L5.38723 6.81795H5.06775V15.4287H0.303467V0.828099L5.2338 0.828053ZM26.2086 0.828099V9.43888H26.5887L29.8193 2.3583C30.4464 0.94924 31.783 0.828099 31.783 0.828099H36.3934V15.4288H31.5297V6.81795H31.1495L27.9823 13.8985C27.3552 15.3012 25.9553 15.4288 25.9553 15.4288H21.3448V0.828099H26.2086ZM53.2048 7.76642C52.5264 9.69693 50.3958 11.0794 48.0369 11.0794H42.9362V15.4288H38.3111V7.76642H53.2048Z" fill="white"/>
<path fill-rule="evenodd" clip-rule="evenodd" d="M48.2592 0.826782H38.0677C38.3102 4.07738 41.0982 6.8601 43.9841 6.8601H53.5253C54.0759 4.15847 52.1805 0.826782 48.2592 0.826782Z" fill="white"/>
</svg>
