<svg width="12" height="12" viewBox="0 0 12 12" xmlns="http://www.w3.org/2000/svg">
<path d="M6.71228 0.589728L8.21571 3.76116L11.2946 4.08773C11.4504 4.10285 11.5982 4.16407 11.7191 4.26358C11.84 4.36308 11.9285 4.49636 11.9733 4.64639C12.0181 4.79642 12.0171 4.9564 11.9706 5.1059C11.9241 5.2554 11.834 5.38764 11.712 5.48573L9.25714 7.5043L10.0166 10.8977C10.0505 11.0486 10.0393 11.206 9.98437 11.3506C9.92944 11.4951 9.83319 11.6202 9.70763 11.7104C9.58207 11.8006 9.43274 11.8519 9.27825 11.8578C9.12377 11.8637 8.97095 11.824 8.83885 11.7437L5.99999 10.0166L3.15856 11.7429C3.02639 11.823 2.87358 11.8626 2.71912 11.8566C2.56466 11.8506 2.41536 11.7994 2.28979 11.7092C2.16421 11.6191 2.0679 11.494 2.01282 11.3496C1.95774 11.2052 1.94633 11.0477 1.97999 10.8969L2.74285 7.5043L0.287992 5.48573C0.166809 5.38737 0.077579 5.25522 0.0316235 5.10606C-0.014332 4.9569 -0.0149409 4.79746 0.0298739 4.64795C0.0746888 4.49845 0.162907 4.36562 0.283335 4.26634C0.403762 4.16705 0.55097 4.10578 0.706277 4.0903L3.78428 3.76373L5.28771 0.589728C5.3517 0.455008 5.4526 0.341199 5.57867 0.261512C5.70475 0.181825 5.85084 0.139526 5.99999 0.139526C6.14914 0.139526 6.29523 0.181825 6.42131 0.261512C6.54739 0.341199 6.64828 0.455008 6.71228 0.589728Z"/>
</svg>
