<svg width="47" height="16" viewBox="0 0 47 16" fill="none" xmlns="http://www.w3.org/2000/svg">
<path d="M20.2021 15.7305H16.4256L18.7877 1.09033H22.564L20.2021 15.7305Z" fill="white"/>
<path d="M33.8924 1.44799C33.1475 1.15177 31.9661 0.824707 30.5052 0.824707C26.7758 0.824707 24.1495 2.81815 24.1334 5.66817C24.1024 7.77091 26.0137 8.93881 27.4432 9.63997C28.9043 10.3564 29.4009 10.824 29.4009 11.4626C29.3861 12.4433 28.2203 12.8955 27.133 12.8955C25.6252 12.8955 24.8174 12.6624 23.5896 12.1168L23.0924 11.8828L22.5638 15.1692C23.4497 15.5737 25.0815 15.9327 26.7758 15.9483C30.7384 15.9483 33.3181 13.9857 33.3487 10.9486C33.3638 9.28201 32.3546 8.00503 30.1787 6.96153C28.8579 6.29166 28.0489 5.83998 28.0489 5.1546C28.0644 4.53151 28.7331 3.89333 30.2241 3.89333C31.4519 3.86206 32.3539 4.15788 33.0373 4.45389L33.3789 4.60934L33.8924 1.44799Z" fill="white"/>
<path d="M38.9115 10.544C39.2225 9.7029 40.4192 6.44778 40.4192 6.44778C40.4035 6.47904 40.7296 5.5912 40.9161 5.04616L41.18 6.30765C41.18 6.30765 41.8952 9.81197 42.0504 10.544C41.4603 10.544 39.6573 10.544 38.9115 10.544ZM43.5731 1.09033H40.652C39.7512 1.09033 39.0667 1.35488 38.6781 2.30503L33.0685 15.7302H37.0311C37.0311 15.7302 37.6835 13.9233 37.8237 13.5341C38.2584 13.5341 42.1132 13.5341 42.6725 13.5341C42.7809 14.0481 43.1231 15.7302 43.1231 15.7302H46.6198L43.5731 1.09033Z" fill="white"/>
<path d="M13.2712 1.09033L9.57275 11.0735L9.16855 9.04877C8.48481 6.71255 6.34036 4.17427 3.94727 2.91217L7.33494 15.7149H11.3285L17.2646 1.09033H13.2712Z" fill="white"/>
<path d="M6.13824 1.09033H0.0621608L0 1.38615C4.73973 2.60104 7.87875 5.52951 9.16846 9.04939L7.84757 2.32097C7.63011 1.38593 6.96183 1.12118 6.13824 1.09033Z" fill="#B1B4B9"/>
</svg>
