<svg width="24" height="24" viewBox="0 0 24 24" fill="none" xmlns="http://www.w3.org/2000/svg">
<path fill-rule="evenodd" clip-rule="evenodd" d="M21.971 11.971C21.971 6.464 17.507 2 12 2V5.988C15.304 5.988 17.983 8.666 17.983 11.971H21.971Z" stroke="white" stroke-width="1.5" stroke-linecap="round" stroke-linejoin="round"/>
<path d="M19.9212 11.971V12.525C19.9212 17.206 16.1272 21 11.4462 21C6.76519 21 2.97119 17.206 2.97119 12.525C2.97119 7.84405 6.76519 4.05005 11.4462 4.05005H12.0002" stroke="white" stroke-width="1.5" stroke-linecap="round" stroke-linejoin="round"/>
<path fill-rule="evenodd" clip-rule="evenodd" d="M13.6784 10.2926C14.9113 11.5255 14.9113 13.5244 13.6784 14.7573C12.4455 15.9901 10.4466 15.9901 9.21373 14.7573C7.98084 13.5244 7.98084 11.5255 9.21373 10.2926C10.4466 9.0597 12.4455 9.0597 13.6784 10.2926Z" fill="white"/>
<path d="M13.6784 10.2926C14.9113 11.5255 14.9113 13.5244 13.6784 14.7573C12.4455 15.9901 10.4466 15.9901 9.21373 14.7573C7.98084 13.5244 7.98084 11.5255 9.21373 10.2926C10.4466 9.0597 12.4455 9.0597 13.6784 10.2926" stroke="white" stroke-width="1.5" stroke-linecap="round" stroke-linejoin="round"/>
</svg>
