<svg width="206" height="40" viewBox="0 0 206 40" fill="none" xmlns="http://www.w3.org/2000/svg">
<path d="M63.5156 12.4062C61.3802 12.4062 59.474 13.2448 57.7969 14.9219C56.1302 16.599 55.2969 18.526 55.2969 20.7031C55.2969 22.5365 55.9062 24.0729 57.125 25.3125C58.3542 26.5417 59.9323 27.1562 61.8594 27.1562C63.974 27.1562 65.8698 26.3385 67.5469 24.7031C69.2344 23.0573 70.0781 21.1042 70.0781 18.8438C70.0781 17.0104 69.4583 15.4792 68.2188 14.25C66.9792 13.0208 65.4115 12.4062 63.5156 12.4062ZM50.2656 20.9844C50.2656 17.6094 51.6302 14.625 54.3594 12.0312C57.099 9.42708 60.2604 8.125 63.8438 8.125C67.1458 8.125 69.849 9.14583 71.9531 11.1875C74.0573 13.2188 75.1094 15.6823 75.1094 18.5781C75.1094 20.8385 74.4792 22.9688 73.2188 24.9688C71.9583 26.9583 70.2865 28.5417 68.2031 29.7188C66.1302 30.8958 63.9271 31.4844 61.5938 31.4844C58.2917 31.4844 55.5781 30.4688 53.4531 28.4375C51.3281 26.3958 50.2656 23.9115 50.2656 20.9844Z" fill="#5946D7"/>
<path d="M97.5462 8.59375H102.343L97.6087 31H93.6087L85.4212 16.7344L82.4056 31H77.6087L82.3431 8.59375H86.3431L94.5462 22.875L97.5462 8.59375Z" fill="#5946D7"/>
<path d="M109.702 26.6875H121.702L120.796 31H103.999L108.733 8.59375H125.217L124.327 12.9219H112.639L111.686 17.4062H120.796L119.874 21.7188H110.749L109.702 26.6875Z" fill="#5946D7"/>
<path d="M125.92 31L130.654 8.59375H140.123C142.019 8.59375 143.613 9.23438 144.904 10.5156C146.206 11.7969 146.857 13.2917 146.857 15C146.857 16.1042 146.665 17.125 146.279 18.0625C145.894 18.9896 145.425 19.7188 144.873 20.25C144.331 20.7812 143.795 21.2292 143.264 21.5938C142.732 21.9583 142.274 22.2031 141.889 22.3281L141.311 22.5156L144.326 31H139.326L136.67 23.1562H132.389L130.717 31H125.92ZM138.217 18.8438C139.196 18.8438 140.061 18.5469 140.811 17.9531C141.571 17.349 141.951 16.5469 141.951 15.5469C141.951 14.8177 141.732 14.1979 141.295 13.6875C140.857 13.1771 140.279 12.9219 139.561 12.9219H134.561L133.279 18.8438H138.217Z" fill="#5946D7"/>
<path d="M148.232 29.1406C148.232 28.4844 148.518 27.8854 149.091 27.3438C149.664 26.7917 150.326 26.5156 151.076 26.5156C151.763 26.5156 152.326 26.7292 152.763 27.1562C153.211 27.5833 153.435 28.099 153.435 28.7031C153.435 29.4115 153.149 30.026 152.576 30.5469C152.003 31.0573 151.341 31.3125 150.591 31.3125C149.904 31.3125 149.336 31.0938 148.888 30.6562C148.451 30.2188 148.232 29.7135 148.232 29.1406Z" fill="#5946D7"/>
<path d="M157.919 31L162.653 8.59375H172.122C174.018 8.59375 175.611 9.23438 176.903 10.5156C178.205 11.7969 178.856 13.2917 178.856 15C178.856 16.1042 178.664 17.125 178.278 18.0625C177.893 18.9896 177.424 19.7188 176.872 20.25C176.33 20.7812 175.794 21.2292 175.262 21.5938C174.731 21.9583 174.273 22.2031 173.887 22.3281L173.309 22.5156L176.325 31H171.325L168.669 23.1562H164.387L162.716 31H157.919ZM170.216 18.8438C171.195 18.8438 172.059 18.5469 172.809 17.9531C173.57 17.349 173.95 16.5469 173.95 15.5469C173.95 14.8177 173.731 14.1979 173.294 13.6875C172.856 13.1771 172.278 12.9219 171.559 12.9219H166.559L165.278 18.8438H170.216Z" fill="#5946D7"/>
<path d="M191.84 27.1562C193.205 27.1562 194.449 26.6562 195.574 25.6562C196.71 24.6562 197.439 23.3958 197.762 21.875L200.574 8.59375H205.371L202.559 21.875C201.965 24.6667 200.673 26.9688 198.684 28.7812C196.705 30.5833 194.35 31.4844 191.621 31.4844C189.121 31.4844 187.033 30.75 185.356 29.2812C183.689 27.8021 182.856 25.9323 182.856 23.6719C182.856 23.099 182.918 22.5 183.043 21.875L185.856 8.59375H190.652L187.84 21.875C187.757 22.2396 187.715 22.625 187.715 23.0312C187.715 24.25 188.1 25.2448 188.871 26.0156C189.652 26.776 190.642 27.1562 191.84 27.1562Z" fill="#5946D7"/>
<path d="M39.008 16.2793L37.5076 16.0991C36.2577 15.949 35.2473 15.0302 34.766 13.8669C34.2847 12.7036 34.3615 11.3605 35.1399 10.3711L36.0704 9.18843C36.4096 8.75485 36.3712 8.08448 35.9792 7.69409L32.3008 4.01424C31.9136 3.62546 31.2416 3.58386 30.8064 3.92304L29.6153 4.8598C28.6283 5.63612 27.2884 5.71131 26.1281 5.23119C24.9672 4.75087 24.0492 3.74301 23.9 2.49562L23.72 0.99196C23.6544 0.446382 23.1504 0 22.6 0H17.3968C16.8464 0 16.3424 0.446382 16.2784 0.99196L16.098 2.49383C15.948 3.74259 15.0284 4.75214 13.8663 5.23327C12.7049 5.71411 11.3649 5.63784 10.3765 4.86117L9.1888 3.92784C8.7568 3.58866 8.0848 3.62865 7.696 4.01744L4.016 7.69889C3.6288 8.08608 3.5888 8.75805 3.9296 9.19323L4.86075 10.3783C5.63775 11.3672 5.71355 12.7081 5.23298 13.8703C4.75203 15.0334 3.74189 15.9535 2.49219 16.1031L0.9936 16.2825C0.448 16.3465 0 16.8505 0 17.4025V22.6055C0 23.1559 0.4464 23.6567 0.9936 23.7239L2.49895 23.9047C3.74608 24.0545 4.75423 24.9701 5.2344 26.1308C5.71497 27.2925 5.64004 28.6343 4.86388 29.6232L3.9312 30.8116C3.5936 31.2451 3.632 31.9155 4.0224 32.3059L7.696 35.9874C8.0848 36.3745 8.7568 36.4177 9.1888 36.0786L10.3789 35.1418C11.3666 34.3645 12.7075 34.2887 13.8687 34.7696C15.0304 35.2507 15.9496 36.2592 16.0997 37.5077L16.28 39.008C16.3456 39.5552 16.848 40 17.3984 40H22.6016C23.1536 40 23.656 39.5552 23.72 39.008L23.9004 37.5071C24.0504 36.2585 24.9701 35.2488 26.1321 34.768C27.294 34.2872 28.6338 34.3637 29.6227 35.1404L30.8112 36.0738C31.2448 36.4129 31.9152 36.3729 32.304 35.9842L35.9824 32.3027C36.3728 31.9155 36.4128 31.2435 36.072 30.8068L35.1403 29.6227C34.3619 28.6335 34.2867 27.29 34.7679 26.1269C35.2478 24.9669 36.2551 24.0513 37.5015 23.9015L39.0064 23.7207C39.5536 23.6551 40 23.1559 40 22.6023V17.3993C40.0016 16.8457 39.5568 16.3449 39.008 16.2793ZM20.0016 29.9988C14.4784 29.9988 10.0016 25.5222 10.0016 19.9992C10.0016 14.4762 14.4784 9.9996 20.0016 9.9996C25.5248 9.9996 30.0016 14.4762 30.0016 19.9992C30.0016 25.5222 25.5264 29.9988 20.0016 29.9988Z" fill="#5946D7"/>
<path fill-rule="evenodd" clip-rule="evenodd" d="M39.7266 16.675C39.5459 16.4625 39.2908 16.3131 39.008 16.2793L37.5076 16.0991C37.1609 16.0575 36.8325 15.9567 36.5289 15.8079C35.9639 15.5311 35.4841 15.0883 35.1293 14.5516C35.0569 14.4421 34.9897 14.3287 34.9281 14.2121C34.8689 14.0999 34.8147 13.9846 34.766 13.8669C34.7206 13.757 34.6801 13.6456 34.6447 13.5329C34.605 13.4067 34.5718 13.2789 34.5451 13.1504C34.4134 12.5159 34.442 11.8614 34.6516 11.2632C34.7626 10.9463 34.9243 10.6451 35.1399 10.3711L36.0704 9.18843C36.245 8.96526 36.3195 8.67935 36.2973 8.40118C36.2764 8.13892 36.1694 7.88354 35.9792 7.69409L32.3008 4.01424C32.1116 3.8243 31.8545 3.71722 31.5902 3.69694C31.3135 3.6757 31.029 3.74957 30.8064 3.92304L29.6153 4.8598C29.3476 5.07039 29.0539 5.22938 28.7448 5.3397C28.1428 5.55459 27.4826 5.58475 26.8427 5.45169C26.7142 5.42496 26.5865 5.39166 26.4602 5.35194C26.3482 5.31669 26.2374 5.2764 26.1281 5.23119C26.0116 5.183 25.8976 5.12951 25.7866 5.07099C25.6698 5.00944 25.5563 4.94233 25.4467 4.87001C24.9079 4.51449 24.4636 4.03295 24.1872 3.46559C24.0405 3.16444 23.9411 2.83911 23.9 2.49562L23.72 0.99196C23.6861 0.710196 23.5353 0.454889 23.3216 0.273864C23.1214 0.104372 22.8661 0 22.6 0H17.3968C17.13 0 16.8741 0.104905 16.6739 0.275161C16.4611 0.456107 16.3114 0.710868 16.2784 0.99196L16.098 2.49383C16.0567 2.83724 15.9573 3.16256 15.8106 3.46378C15.5341 4.03158 15.0897 4.51373 14.5509 4.86993C14.4413 4.94241 14.3277 5.00967 14.2109 5.07139C14.0989 5.13055 13.9839 5.18461 13.8663 5.23327C13.7578 5.2782 13.6477 5.31826 13.5365 5.35334C13.4107 5.39303 13.2835 5.42635 13.1554 5.45312C12.5194 5.58608 11.8633 5.55764 11.2638 5.3471C10.9487 5.23644 10.6492 5.07546 10.3765 4.86117L9.1888 3.92784C8.9678 3.75432 8.68399 3.68004 8.40741 3.70092C8.14336 3.72086 7.8859 3.82755 7.696 4.01744L4.016 7.69889C3.82723 7.88765 3.72099 8.1441 3.70116 8.4078C3.68031 8.685 3.75495 8.97021 3.9296 9.19323L4.86075 10.3783C5.07448 10.6503 5.23516 10.949 5.34579 11.2632C5.5569 11.8629 5.5858 12.5193 5.45342 13.1557C5.42669 13.2842 5.39337 13.412 5.35365 13.5382C5.31842 13.6502 5.27816 13.7611 5.23298 13.8703C5.18437 13.9879 5.13036 14.1029 5.07124 14.215C5.00974 14.3315 4.94271 14.4448 4.87049 14.5542C4.51586 15.0914 4.0361 15.5348 3.47106 15.8118C3.16735 15.9608 2.83899 16.0616 2.49219 16.1031L0.9936 16.2825C0.712562 16.3155 0.457419 16.4652 0.276062 16.6781C0.105337 16.8785 0 17.1348 0 17.4025V22.6055C0 22.8735 0.105859 23.1298 0.27767 23.3299C0.458673 23.5408 0.712872 23.6894 0.9936 23.7239L2.49895 23.9047C2.83906 23.9455 3.1614 24.0433 3.46011 24.1875C4.0313 24.4633 4.51606 24.9087 4.87341 25.4499C4.94593 25.5597 5.0132 25.6735 5.07488 25.7906C5.13314 25.9012 5.18641 26.0148 5.2344 26.1308C5.27984 26.2406 5.32031 26.3521 5.35569 26.4647C5.3956 26.5917 5.42903 26.7202 5.45581 26.8495C5.58795 27.4875 5.5582 28.1456 5.34533 28.7464C5.23501 29.0577 5.07551 29.3536 4.86388 29.6232L3.9312 30.8116C3.75794 31.0341 3.68372 31.319 3.70528 31.5964C3.72573 31.8595 3.83236 32.1159 4.0224 32.3059L7.696 35.9874C7.88836 36.1789 8.15004 36.2863 8.41768 36.3048C8.691 36.3237 8.97053 36.2499 9.1888 36.0786L10.3789 35.1418C10.6534 34.9258 10.9551 34.764 11.2727 34.6532C11.8707 34.4446 12.525 34.4171 13.159 34.5499C13.2866 34.5767 13.4133 34.6099 13.5386 34.6494C13.6499 34.6845 13.7601 34.7246 13.8687 34.7696C13.9857 34.818 14.1002 34.8718 14.2117 34.9307C14.3278 34.9919 14.4406 35.0587 14.5497 35.1306C15.0888 35.4861 15.5336 35.9676 15.8107 36.5348C15.9583 36.8368 16.0583 37.1631 16.0997 37.5077L16.28 39.008C16.3137 39.2888 16.4623 39.5426 16.6734 39.7232C16.8738 39.8945 17.1304 40 17.3984 40H22.6016C22.8701 40 23.1269 39.8948 23.3272 39.7237C23.5386 39.5431 23.6871 39.2891 23.72 39.008L23.9004 37.5071C23.9417 37.1631 24.0415 36.8372 24.1887 36.5355C24.4657 35.9676 24.9106 35.4855 25.4499 35.1296C25.559 35.0576 25.6719 34.9908 25.788 34.9295C25.8999 34.8705 26.0147 34.8165 26.1321 34.768C26.2413 34.7228 26.3521 34.6825 26.464 34.6473C26.5903 34.6075 26.718 34.5742 26.8466 34.5475C27.4842 34.4148 28.1419 34.4444 28.7424 34.657C29.0549 34.7676 29.352 34.9277 29.6227 35.1404L30.8112 36.0738C31.0327 36.247 31.3159 36.3213 31.5919 36.3008C31.8562 36.2811 32.1138 36.1744 32.304 35.9842L35.9824 32.3027C36.1726 32.1141 36.2796 31.8578 36.3 31.5941C36.3214 31.3165 36.2467 31.0307 36.072 30.8068L35.1403 29.6227C34.9256 29.3498 34.7644 29.05 34.6536 28.7345C34.4434 28.1357 34.4147 27.4803 34.5465 26.8449C34.5731 26.7167 34.6062 26.5894 34.6457 26.4635C34.6813 26.35 34.7221 26.2376 34.7679 26.1269C34.8158 26.011 34.869 25.8975 34.9272 25.787C34.9887 25.6703 35.0557 25.5569 35.128 25.4474C35.4841 24.9075 35.967 24.4628 36.5361 24.1867C36.836 24.0412 37.1598 23.9426 37.5015 23.9015L39.0064 23.7207C39.2894 23.6867 39.5454 23.5369 39.7266 23.3235C39.8959 23.1242 40 22.8696 40 22.6023V17.3993C40.0008 17.1309 39.8966 16.875 39.7266 16.675ZM30 19.8186C29.982 18.8006 29.8118 17.8197 29.5114 16.8978C29.4292 16.6456 29.3373 16.3978 29.236 16.1549C29.1387 15.9215 29.0329 15.6926 28.9188 15.4686C28.4557 14.5588 27.8574 13.7294 27.1504 13.0067C27.1 12.9552 27.049 12.9042 26.9975 12.8538C26.2729 12.1443 25.4408 11.5441 24.5279 11.08C24.3032 10.9658 24.0735 10.8598 23.8394 10.7624C23.5971 10.6616 23.35 10.5701 23.0985 10.4883C22.1506 10.1799 21.1406 10.0093 20.092 10C20.0619 9.99973 20.0317 9.9996 20.0016 9.9996C19.9715 9.9996 19.9413 9.99973 19.9112 10C18.8607 10.0093 17.8489 10.1805 16.8995 10.49C16.6474 10.5722 16.3996 10.6641 16.1567 10.7653C15.9235 10.8625 15.6947 10.9683 15.4709 11.0823C13.584 12.0427 12.0428 13.5844 11.0829 15.4715C10.9689 15.6956 10.863 15.9247 10.7658 16.1582C10.6646 16.4012 10.5727 16.6491 10.4906 16.9014C10.1732 17.8768 10.0016 18.9179 10.0016 19.9992C10.0016 21.0817 10.1736 22.124 10.4917 23.1003C10.5738 23.3521 10.6656 23.5996 10.7666 23.8422C10.8642 24.0765 10.9705 24.3063 11.0851 24.5312C12.0455 26.417 13.5866 27.9575 15.473 28.9172C15.6975 29.0314 15.927 29.1374 16.1609 29.2348C16.4035 29.3358 16.6509 29.4275 16.9027 29.5094C17.8783 29.8271 18.9199 29.9988 20.0016 29.9988C21.0823 29.9988 22.1229 29.8275 23.0976 29.5106C23.3505 29.4284 23.599 29.3364 23.8426 29.235C24.0761 29.1378 24.3052 29.032 24.5294 28.918C26.4168 27.9582 27.9585 26.417 28.9189 24.5302C29.0337 24.3047 29.1402 24.0742 29.238 23.8392C29.3386 23.5974 29.43 23.3508 29.5118 23.0998C29.812 22.1781 29.982 21.1975 30 20.1799C30.0011 20.1198 30.0016 20.0595 30.0016 19.9992C30.0016 19.9389 30.0011 19.8787 30 19.8186Z" fill="#5946D7"/>
<path d="M36 20C36 28.8366 28.8366 36 20 36C11.1634 36 4 28.8366 4 20C4 11.1634 11.1634 4 20 4C28.8366 4 36 11.1634 36 20Z" fill="white"/>
<path fill-rule="evenodd" clip-rule="evenodd" d="M20 32C26.6274 32 32 26.6274 32 20C32 13.3726 26.6274 8 20 8C13.3726 8 8 13.3726 8 20C8 26.6274 13.3726 32 20 32ZM20 36C28.8366 36 36 28.8366 36 20C36 11.1634 28.8366 4 20 4C11.1634 4 4 11.1634 4 20C4 28.8366 11.1634 36 20 36Z" fill="#5946D7"/>
<g clip-path="url(#clip0)">
<path d="M23.4303 16.9239C23.4132 16.9037 23.3987 16.8841 23.3786 16.8645L22.4908 15.9852C23.2271 15.8138 24.0197 15.1808 24.0197 14.5313C24.0197 13.7746 22.9965 13.5061 22.1232 13.5061C21.2101 13.5061 21.1041 14.1481 21.0933 14.6018L18.8028 12.3355C18.3375 11.8627 17.4549 11.4907 16.7951 11.4907H12.3341H12.3331H7.87104C7.21181 11.4907 6.32975 11.8627 5.86389 12.3355L3.57393 14.6018C3.56204 14.1481 3.45605 13.5061 2.54399 13.5061C1.66968 13.5061 0.646977 13.7746 0.646977 14.5313C0.646977 15.1808 1.44011 15.8138 2.17638 15.9852L1.28862 16.8645C1.26846 16.8841 1.2545 16.9037 1.23692 16.9239C0.287118 17.757 -0.333328 19.3022 -0.333328 20.4234V23.7553C-0.333328 24.5639 -0.0225881 25.2978 0.479456 25.8449V27.137C0.479456 27.8926 1.09577 28.5087 1.85374 28.5087H3.51551C4.27348 28.5087 4.88928 27.8937 4.88928 27.137V26.8064H12.3331H12.3341H19.7774V27.137C19.7774 27.8937 20.3927 28.5087 21.1517 28.5087H22.8129C23.5714 28.5087 24.1867 27.8926 24.1867 27.137V25.8449C24.6893 25.2978 24.9995 24.5639 24.9995 23.7553V20.4234C25.0005 19.3022 24.3801 17.757 23.4303 16.9239ZM6.70512 13.3426C7.02723 13.0672 7.59029 12.8582 7.87104 12.8582L11 13L12.6372 13.3426H16.55C16.8308 13.3426 17.352 13.2307 17.6741 13.5061L20 16.3301H12.3341H12.3331H3.70216L6.70512 13.3426ZM0.697129 19.9193C0.697129 19.099 1.32275 18.433 2.0952 18.433C2.86714 18.433 5.38977 19.9527 5.38977 20.7731C5.38977 21.5935 2.86714 21.4035 2.0952 21.4035C1.32275 21.4035 0.697129 20.7402 0.697129 19.9193ZM4.88979 25.3456H4.62352H4.35724L2.77769 25.3482C2.33924 25.2081 2.03005 25.0447 1.81135 24.8691C1.7007 24.7804 1.61591 24.6881 1.54973 24.5963C1.48303 24.5035 1.43443 24.4122 1.40289 24.3209C1.20641 23.751 1.61229 23.2273 1.61229 23.2273H4.30813L6.10535 25.3445L4.88979 25.3456ZM16.2098 25.3466H12.3341H12.3331H8.45736C7.64923 25.3466 6.99311 24.6733 6.99311 23.8444H12.3331H12.3341H17.6741C17.6741 24.6743 17.018 25.3466 16.2098 25.3466ZM16.55 22.8192H12.3341H12.3331H8.11715C7.23818 22.8192 6.52467 21.707 6.52467 20.3353H12.3331H12.3341H18.1425C18.1425 21.7075 17.429 22.8192 16.55 22.8192ZM23.2648 24.322C23.2328 24.4132 23.1842 24.5045 23.1175 24.5968C23.0518 24.6886 22.967 24.781 22.8558 24.8696C22.6377 25.0452 22.3279 25.2097 21.8895 25.3488L20.3099 25.3461H20.0437H19.7774H18.5608L20.3591 23.2289H23.0544C23.0544 23.2289 23.4608 23.751 23.2648 24.322ZM22.572 21.4035C21.8006 21.4035 19.2779 21.5924 19.2779 20.7731C19.2779 19.9538 21.8006 18.433 22.572 18.433C23.3444 18.433 23.9701 19.099 23.9701 19.9193C23.9701 20.7391 23.3444 21.4035 22.572 21.4035Z" fill="#5946D7"/>
<path d="M16.2098 25.3466H12.3341H12.3331H8.45736C7.64923 25.3466 6.99311 24.6733 6.99311 23.8444H12.3331H12.3341H17.6741C17.6741 24.6743 17.018 25.3466 16.2098 25.3466Z" fill="#5946D7"/>
</g>
<path fill-rule="evenodd" clip-rule="evenodd" d="M20 30C25.5228 30 30 25.5228 30 20C30 14.4772 25.5228 10 20 10C14.4772 10 10 14.4772 10 20C10 25.5228 14.4772 30 20 30ZM20 33C27.1797 33 33 27.1797 33 20C33 12.8203 27.1797 7 20 7C12.8203 7 7 12.8203 7 20C7 27.1797 12.8203 33 20 33Z" fill="white"/>
<defs>
<clipPath id="clip0">
<rect width="19" height="26" fill="white" transform="translate(6 7)"/>
</clipPath>
</defs>
</svg>
